<?xml version="1.0" encoding="utf-8"?>
<!-- Generator: Adobe Illustrator 28.2.0, SVG Export Plug-In . SVG Version: 6.00 Build 0)  -->
<svg version="1.1" id="圖層_1" xmlns="http://www.w3.org/2000/svg" xmlns:xlink="http://www.w3.org/1999/xlink" x="0px" y="0px"
	 viewBox="0 0 232.3 32" style="enable-background:new 0 0 232.3 32;" xml:space="preserve">
<style type="text/css">
	.st0{fill:#221714;}
	.st1{fill:#FFFFFF;}
	.st2{fill:url(#SVGID_1_);}
	.st3{fill:url(#SVGID_00000181045105234701292020000003281809753423754378_);}
	.st4{fill:url(#SVGID_00000023254460006990483480000007984801790091494327_);}
	.st5{fill:url(#SVGID_00000039115184275638979790000014633886960894913166_);}
	.st6{fill:none;stroke:#221714;stroke-miterlimit:10;}
	.st7{filter:url(#Adobe_OpacityMaskFilter);}
	.st8{fill:url(#SVGID_00000178905636673545703920000010348549170659980427_);}
	.st9{mask:url(#SVGID_00000012431920753466535230000001093428053048417187_);}
	.st10{fill:#B08328;}
</style>
<g>
	<g>
		<g>
			<g>
				<path class="st0" d="M40.8,20.4H42l1.7,4.9l0,0l1.7-4.9h1.2v6h-0.8v-4.9l0,0l-1.7,4.9h-0.8l-1.7-4.9l0,0v4.9h-0.8L40.8,20.4
					L40.8,20.4z"/>
				<path class="st0" d="M50.7,26.3c-0.4,0.1-0.6,0.2-1,0.2c-1.2,0-2-0.7-2-2.3c0-1.8,1.1-2,1.7-2c1,0,1.5,0.7,1.5,1.7v0.2h-2.4
					c0,0.8,0.4,1.9,1.5,1.9c0.4,0,0.6-0.1,0.8-0.2C50.7,25.7,50.7,26.3,50.7,26.3z M50,23.5c0-0.3-0.2-0.7-0.7-0.7
					c-0.6,0-0.8,0.5-0.8,0.7H50z"/>
				<path class="st0" d="M54.9,26.6c0,1.2-0.7,1.7-1.9,1.7c-0.6,0-1.1-0.1-1.2-0.2v-0.8c0.3,0.1,0.7,0.3,1.2,0.3
					c1.2,0,1.2-0.8,1.2-1.3v-0.6l0,0c-0.1,0.2-0.4,0.7-1.1,0.7c-1.1,0-1.4-1-1.4-2.1s0.4-2.1,1.5-2.1c0.7,0,1,0.5,1.1,0.7l0,0v-0.6
					h0.8C54.9,22.2,54.9,26.6,54.9,26.6z M53.3,25.8c0.7,0,0.9-0.9,0.9-1.6c0-0.6-0.2-1.5-0.9-1.5s-0.8,0.9-0.8,1.5
					S52.6,25.8,53.3,25.8z"/>
				<path class="st0" d="M58.2,25.9L58.2,25.9c-0.1,0.2-0.5,0.6-1.1,0.6c-0.8,0-1.1-0.5-1.1-1.1c0-1.1,1.2-1.4,2.2-1.4v-0.7
					c-0.1-0.4-0.4-0.5-0.6-0.5c-0.5,0-0.7,0.3-0.7,0.6H56c0-0.7,0.4-1.2,1.6-1.2c1.4,0,1.4,1,1.4,1.4v2.8h-0.8V25.9L58.2,25.9z
					 M58,24.5c-0.6,0-1.2,0.3-1.2,0.8c0,0.3,0.2,0.5,0.5,0.5c0.5,0,0.9-0.6,0.9-1.1v-0.2C58.2,24.5,58,24.5,58,24.5z"/>
				<path class="st0" d="M64.4,23.1c0.6,0.3,1.2,0.7,1.2,1.7c0,1.1-0.9,1.7-2.1,1.7c-0.7,0-1.4-0.2-1.5-0.3v-0.9
					c0.4,0.2,0.9,0.4,1.6,0.4c0.6,0,1.1-0.3,1.1-0.9s-0.5-0.9-1-1.1l-0.6-0.3c-0.6-0.3-1.3-0.7-1.3-1.6c0-1,0.9-1.6,2-1.6
					c0.6,0,1.1,0.1,1.4,0.2v0.8C65,21.3,64.4,21,63.7,21c-0.6,0-1,0.3-1,0.8s0.5,0.8,1,1L64.4,23.1z"/>
				<path class="st0" d="M69.4,26.3c-0.3,0.1-0.6,0.2-1,0.2c-1.2,0-2-0.7-2-2.3c0-1.8,1.1-2,1.7-2c1,0,1.5,0.7,1.5,1.7v0.2h-2.4
					c0,0.8,0.4,1.9,1.5,1.9c0.4,0,0.6-0.1,0.8-0.2L69.4,26.3L69.4,26.3z M68.7,23.5c0-0.3-0.2-0.7-0.7-0.7c-0.6,0-0.8,0.5-0.8,0.7
					H68.7z"/>
				<path class="st0" d="M73.3,26.3c-0.3,0.1-0.7,0.2-1.1,0.2c-1.6,0-2-1.3-2-2.3c0-1.1,0.5-2,1.8-2c1.1,0,1.5,0.8,1.5,1.5h-0.9
					c0-0.3-0.1-0.8-0.6-0.8s-0.8,0.5-0.8,1.2c0,0.8,0.3,1.8,1.6,1.8c0.2,0,0.4,0,0.7-0.1L73.3,26.3L73.3,26.3z"/>
				<path class="st0" d="M76.5,25.5L76.5,25.5c-0.2,0.4-0.5,1-1.3,1c-0.9,0-1.1-0.8-1.1-1.4v-2.9h0.8v2.2c0,0.8,0,1.2,0.6,1.2
					s1.1-0.9,1.1-1.7v-1.8h0.8v4.1h-0.8L76.5,25.5L76.5,25.5z"/>
				<path class="st0" d="M78.6,22.2h0.8V23l0,0c0.1-0.3,0.5-0.9,1.2-0.9V23c-0.7,0-1.3,0.4-1.3,1.6v1.8h-0.8L78.6,22.2L78.6,22.2z"
					/>
				<path class="st0" d="M81.3,20.4h0.9v0.9h-0.9V20.4z M81.4,22.2h0.8v4.1h-0.8V22.2z"/>
				<path class="st0" d="M85.6,26.4c-0.2,0.1-0.4,0.1-0.6,0.1c-1,0-1.2-0.4-1.2-1v-2.6H83v-0.6h0.7v-1l0.8-0.5v1.5h1.1v0.6h-1.1V25
					c0,0.4,0.1,0.8,0.7,0.8c0.2,0,0.3,0,0.4-0.1V26.4L85.6,26.4z"/>
				<path class="st0" d="M86.5,20.4h0.9v0.9h-0.9V20.4z M86.6,22.2h0.8v4.1h-0.8V22.2z"/>
				<path class="st0" d="M91.5,26.3c-0.3,0.1-0.6,0.2-1,0.2c-1.2,0-2-0.7-2-2.3c0-1.8,1.1-2,1.7-2c1,0,1.5,0.7,1.5,1.7v0.2h-2.4
					c0,0.8,0.4,1.9,1.5,1.9c0.4,0,0.6-0.1,0.8-0.2L91.5,26.3L91.5,26.3z M90.7,23.5c0-0.3-0.2-0.7-0.7-0.7c-0.6,0-0.8,0.5-0.8,0.7
					H90.7z"/>
				<path class="st0" d="M93.9,24c0.4,0.3,0.9,0.5,0.9,1.2c0,0.9-0.6,1.2-1.6,1.2c-0.6,0-0.9-0.1-1.1-0.2v-0.7
					c0.1,0.1,0.6,0.3,1,0.3s0.8-0.1,0.8-0.5c0-0.3-0.4-0.5-0.7-0.7l-0.4-0.3C92.4,24,92,23.8,92,23.2c0-0.7,0.6-1.1,1.5-1.1
					c0.4,0,0.7,0.1,0.9,0.2V23c-0.1-0.1-0.5-0.3-0.9-0.3c-0.3,0-0.7,0.2-0.7,0.4s0.3,0.4,0.6,0.6L93.9,24z"/>
			</g>
		</g>
		<g>
			<path class="st0" d="M43.8,5.5h1V11c-0.1,1.5-0.3,2.7-0.8,3.6c-0.3,0.5-0.7,0.9-1.1,1.2c-0.5,0.3-1.2,0.6-2.1,0.8l-0.6-1
				c0.6-0.1,1.3-0.3,1.9-0.5c1.1-0.6,1.7-1.8,1.7-3.6c-0.8,0.6-1.8,1.3-3,2l-0.5-1c1.5-0.8,2.7-1.6,3.5-2.2L43.8,5.5L43.8,5.5z
				 M41.3,6.5c0.6,0.7,1.3,1.6,1.9,2.8l-0.9,0.6c-0.7-1.2-1.4-2.1-1.9-2.7L41.3,6.5z M47.3,5.5v9.3c0,0.2,0.1,0.3,0.2,0.4
				c0.1,0.1,0.3,0.2,0.4,0.2h1.8c0.1,0,0.2-0.1,0.3-0.1c0.1-0.1,0.1-0.5,0.2-1.5l1,0.2c-0.1,1.3-0.2,2-0.3,2.1
				c-0.2,0.3-0.5,0.4-0.7,0.4h-2.8c-0.3,0-0.5-0.2-0.7-0.4s-0.3-0.5-0.3-0.7V5.5H47.3z M50.8,6.7c-0.6,0.9-1.4,1.8-2.4,2.8l-0.8-0.7
				c1.1-1.1,1.9-2,2.3-2.8L50.8,6.7z M48.3,10.2c0.9,0.5,1.8,1.2,2.8,2.2l-0.7,0.8c-1.1-1-2-1.7-2.8-2.2L48.3,10.2z"/>
			<path class="st0" d="M57.5,14.8h-1.7c-0.1,0-0.1-0.1-0.1-0.1v-1.9c0-0.1,0.1-0.1,0.1-0.1h8.7c0.1,0,0.1,0.1,0.1,0.1v1.9
				c0,0.1-0.1,0.1-0.1,0.1H63l-0.3,0.8h3v0.9h-11v-0.9h3.1L57.5,14.8z M65.6,11.4v0.8H54.9v-0.8H65.6z M61.1,9.5V8.8h1V8.2h-1V7.5h1
				V6.8H61V6.1h1.1V5.4H63V6h1v0.7h-1v0.6h1V8h-1v0.6h1v0.7h-1V10h1.3c0.1,0,0.2-0.1,0.2-0.2V5.5h0.9v4.9c0,0.3-0.2,0.4-0.4,0.4
				h-9.6c-0.3,0-0.4-0.2-0.4-0.4V5.5h0.9v4.3c0,0.1,0.1,0.2,0.2,0.2h1.3V9.4h-1V8.7h1V8h-1V7.3h1V6.7h-1V6h1V5.4h0.8V6h0.9v0.7h-0.9
				v0.6h0.9V8h-0.9v0.6h1v0.7h-1V10h1.5V5.3h0.9V10h1.6V9.4L61.1,9.5L61.1,9.5z M56.7,13.4C56.7,13.4,56.7,13.5,56.7,13.4l-0.1,0.5
				l0.1,0.1h7.1l0.1-0.1v-0.5l-0.1-0.1L56.7,13.4L56.7,13.4z M61.7,15.6L62,15l0.1-0.2h-3.6l0.3,0.8H61.7z"/>
			<path class="st0" d="M69,7.5h3.6v0.9H69V7.5z M70.1,16v0.3h-1v-3.5c0-0.2,0.1-0.3,0.3-0.3h2.7c0.2,0,0.3,0.1,0.3,0.3v2.9
				c0,0.2-0.1,0.3-0.3,0.3L70.1,16L70.1,16z M69.3,5.9h2.9v0.9h-2.9V5.9z M69.3,9.2h3v0.9h-3V9.2z M69.3,10.9h3v0.9h-3V10.9z
				 M71.3,13.4h-1c-0.1,0-0.2,0.1-0.2,0.2v1.6h1.2c0.2,0,0.2-0.1,0.2-0.2v-1.4C71.5,13.5,71.4,13.4,71.3,13.4z M74.5,9.4
				C74.4,9.4,74.4,9.4,74.5,9.4c-0.4,0.3-0.8,0.6-1.2,0.8l-0.6-0.8C72.9,9.3,73.3,9,74,8.7c-0.3-0.3-0.6-0.5-1.1-0.9l0.6-0.7
				c0.6,0.5,1,0.8,1.1,1c0.5-0.5,0.8-0.9,1.1-1.4h-2.1V5.9h2.8c0.2,0,0.3,0.1,0.3,0.2c0.2,0.2,0.3,0.4,0.4,0.6
				c0.4-0.4,0.7-0.8,0.8-1.1l0.7,0.6c-0.3,0.4-0.6,0.8-1,1.2c0.1,0.2,0.2,0.3,0.4,0.4c0.5-0.5,0.8-0.9,1-1.3L79.9,7
				c-0.3,0.4-0.6,0.9-1.1,1.4c0.4,0.3,0.8,0.6,1.4,0.9L79.5,10c-0.3-0.2-0.5-0.4-0.8-0.5v0.6h-4.3L74.5,9.4L74.5,9.4z M78.1,15.6H80
				v0.9h-6.9v-0.9H75c-0.2-0.6-0.3-1.2-0.4-1.7h-0.8c-0.2,0-0.3-0.1-0.3-0.3V11c0-0.2,0.1-0.3,0.3-0.3h5.5c0.2,0,0.3,0.1,0.3,0.3
				v2.7c0,0.2-0.1,0.3-0.3,0.3h-0.7c-0.1,0.2-0.1,0.5-0.2,0.8C78.3,15,78.2,15.3,78.1,15.6z M78.6,11.6h-4.1c-0.1,0-0.1,0-0.1,0.1
				v1.2c0,0.1,0,0.1,0.1,0.1h4.1c0.1,0,0.1,0,0.1-0.1L78.6,11.6L78.6,11.6z M74.8,9.1h3.6c-0.6-0.5-1.2-1.2-1.8-2
				C76.2,7.8,75.5,8.5,74.8,9.1z M77.5,14.3c0.1-0.2,0.1-0.4,0.1-0.5h-2c0.2,0.6,0.3,1.2,0.4,1.7h1.1C77.3,15.2,77.4,14.8,77.5,14.3
				z"/>
			<path class="st0" d="M88.2,13.1h-2.1v-0.7c-0.5,0.5-1.1,0.9-1.7,1.3L83.7,13c1-0.6,1.9-1.3,2.7-2H84v-1h3.3
				c0.3-0.4,0.6-0.8,0.8-1.2l0,0h-3.6v-1h4c0.2-0.7,0.3-1.5,0.4-2.3L90,5.6c-0.1,0.6-0.3,1.3-0.5,2.2H91c0.6-0.9,1-1.6,1.2-2.2
				L93.1,6c-0.2,0.5-0.5,1.1-0.9,1.7h2.2v1h-3.5c0.3,0.5,0.5,0.9,0.7,1.3h3.2v1h-2.4c0.6,0.7,1.5,1.4,2.6,2l-0.8,0.8
				c-0.4-0.3-0.8-0.6-1.2-0.9c0,0.7,0,1.4-0.1,1.9c-0.1,0.6-0.2,1-0.4,1.3c-0.2,0.3-0.5,0.4-0.8,0.5c-0.6,0.2-1.4,0.1-2.5-0.2v-1.2
				c0.5,0.2,0.8,0.3,1.1,0.4c0.5,0.1,0.9,0,1.2-0.3c0.2-0.2,0.2-0.4,0.3-0.7c0.1-0.8,0.1-1.2,0-1.4c-0.1-0.1-0.1-0.1-0.1-0.1h-2.3
				c-0.1,0.4-0.3,0.7-0.5,1c-0.1,0.1-0.2,0.3-0.3,0.4c-0.9,1.1-2.3,1.8-4.4,2.1l-0.3-1.1c0.5-0.1,0.9-0.1,1.3-0.2
				C86.8,15,87.8,14.2,88.2,13.1z M85.4,6.1l0.8-0.6c0.4,0.4,0.7,0.9,1.1,1.6l-0.9,0.6C86,6.9,85.7,6.4,85.4,6.1z M86.5,12.2h5.6
				c-0.2-0.2-0.5-0.6-1-1.2h-3.5C87.3,11.3,87,11.7,86.5,12.2z M90.4,10c-0.2-0.4-0.5-0.8-0.7-1.3H89c-0.1,0.2-0.3,0.6-0.7,1.3H90.4
				z"/>
		</g>
	</g>
	<g>
		<g>
			<g>
				<path class="st1" d="M1.5,16c0-8.2,6.7-14.9,14.9-14.9S31.3,7.8,31.3,16s-6.7,14.9-14.9,14.9S1.5,24.2,1.5,16z"/>
			</g>
			
				<linearGradient id="SVGID_1_" gradientUnits="userSpaceOnUse" x1="-12178.6758" y1="31203.9551" x2="-12564.2842" y2="31203.9551" gradientTransform="matrix(-6.050000e-02 0 0 6.050000e-02 -731.6199 -1879.2893)">
				<stop  offset="0" style="stop-color:#FFFFFF"/>
				<stop  offset="0.1488" style="stop-color:#E2D6B8"/>
				<stop  offset="0.3996" style="stop-color:#B4974B"/>
				<stop  offset="0.5112" style="stop-color:#A48022"/>
				<stop  offset="0.6407" style="stop-color:#A07D24"/>
				<stop  offset="0.7811" style="stop-color:#937126"/>
				<stop  offset="0.9261" style="stop-color:#805E2B"/>
				<stop  offset="1" style="stop-color:#72512F"/>
			</linearGradient>
			<path class="st2" d="M5.5,9.2C8.2,7.3,12,6.1,16.4,6.1s8.1,1.2,10.9,3.1c2.5,1.8,4,4.2,4,6.8c0-5.6-3-10.4-7.5-13
				c-2.1-1.1-4.4-1.9-6.9-1.9c0,0,0,0-0.1,0s-0.3,0-0.4,0l0,0l0,0c-0.1,0-0.3,0-0.4,0c0,0,0,0-0.1,0c-2.5,0.1-4.8,0.8-6.9,2
				C6.8,4.5,5.4,6.4,5.4,8.6C5.5,8.8,5.5,9,5.5,9.2z"/>
			
				<linearGradient id="SVGID_00000064314316622315837370000009521447309458039968_" gradientUnits="userSpaceOnUse" x1="-12404.5371" y1="31124.9629" x2="-12560.8262" y2="31493.1562" gradientTransform="matrix(-6.050000e-02 0 0 6.050000e-02 -731.6199 -1879.2893)">
				<stop  offset="0" style="stop-color:#FFFFFF"/>
				<stop  offset="2.930000e-02" style="stop-color:#F7F5EC"/>
				<stop  offset="0.1641" style="stop-color:#D9CAA3"/>
				<stop  offset="0.285" style="stop-color:#C1A96A"/>
				<stop  offset="0.3878" style="stop-color:#B19243"/>
				<stop  offset="0.4684" style="stop-color:#A8852A"/>
				<stop  offset="0.5169" style="stop-color:#A48022"/>
				<stop  offset="0.7465" style="stop-color:#8A6827"/>
				<stop  offset="1" style="stop-color:#72512F"/>
			</linearGradient>
			<path style="fill:url(#SVGID_00000064314316622315837370000009521447309458039968_);" d="M27.2,22.8c0.1,0.2,0.1,0.4,0.1,0.7
				c0,2.2-1.4,4.2-3.6,5.5c4.5-2.5,7.5-7.4,7.5-13c0-2.6-1.5-5-4-6.8c-2.7-1.9-6.6-3.1-10.9-3.1V16C22,16,26.7,19,27.2,22.8z"/>
			
				<linearGradient id="SVGID_00000158726633626994500670000008025442227915987889_" gradientUnits="userSpaceOnUse" x1="12338.7754" y1="-31790.1406" x2="11953.1543" y2="-31790.1406" gradientTransform="matrix(6.050000e-02 0 0 -6.050000e-02 -718.9584 -1899.8535)">
				<stop  offset="0" style="stop-color:#FFFFFF"/>
				<stop  offset="0.1488" style="stop-color:#E2D6B8"/>
				<stop  offset="0.3996" style="stop-color:#B4974B"/>
				<stop  offset="0.5112" style="stop-color:#A48022"/>
				<stop  offset="0.6407" style="stop-color:#A07D24"/>
				<stop  offset="0.7811" style="stop-color:#937126"/>
				<stop  offset="0.9261" style="stop-color:#805E2B"/>
				<stop  offset="1" style="stop-color:#72512F"/>
			</linearGradient>
			<path style="fill:url(#SVGID_00000158726633626994500670000008025442227915987889_);" d="M27.2,22.8c-2.7,1.9-6.6,3.1-10.9,3.1
				s-8.1-1.2-10.9-3.1c-2.5-1.8-4-4.2-4-6.8c0,5.6,3,10.3,7.5,13c2,1.1,4.4,1.9,6.9,1.9c0,0,0,0,0.1,0s0.3,0,0.4,0l0,0l0,0
				c0.1,0,0.3,0,0.4,0c0,0,0,0,0.1,0c2.5-0.1,4.9-0.8,6.9-1.9c2.2-1.4,3.6-3.3,3.6-5.5C27.2,23.2,27.2,23,27.2,22.8z"/>
			
				<linearGradient id="SVGID_00000065767952659176118970000018134883726444815238_" gradientUnits="userSpaceOnUse" x1="12112.6748" y1="-31869.6426" x2="11956.4014" y2="-31501.4863" gradientTransform="matrix(6.050000e-02 0 0 -6.050000e-02 -718.9584 -1899.8535)">
				<stop  offset="0" style="stop-color:#FFFFFF"/>
				<stop  offset="2.930000e-02" style="stop-color:#F7F5EC"/>
				<stop  offset="0.1641" style="stop-color:#D9CAA3"/>
				<stop  offset="0.285" style="stop-color:#C1A96A"/>
				<stop  offset="0.3878" style="stop-color:#B19243"/>
				<stop  offset="0.4684" style="stop-color:#A8852A"/>
				<stop  offset="0.5169" style="stop-color:#A48022"/>
				<stop  offset="0.7465" style="stop-color:#8A6827"/>
				<stop  offset="1" style="stop-color:#72512F"/>
			</linearGradient>
			<path style="fill:url(#SVGID_00000065767952659176118970000018134883726444815238_);" d="M5.5,9.2C5.4,9,5.4,8.8,5.4,8.6
				C5.4,6.4,6.8,4.4,9,3c-4.5,2.6-7.5,7.4-7.5,13c0,2.6,1.5,5,4,6.8c2.7,1.9,6.6,3.1,10.9,3.1V16C10.7,16,6,13,5.5,9.2z"/>
		</g>
	</g>
</g>
<line class="st6" x1="102.1" y1="5.1" x2="102.1" y2="25.9"/>
<defs>
	<filter id="Adobe_OpacityMaskFilter" filterUnits="userSpaceOnUse" x="109.9" y="6.3" width="121.3" height="17.6">
		<feColorMatrix  type="matrix" values="1 0 0 0 0  0 1 0 0 0  0 0 1 0 0  0 0 0 1 0"/>
	</filter>
</defs>
<mask maskUnits="userSpaceOnUse" x="109.9" y="6.3" width="121.3" height="17.6" id="SVGID_00000012431920753466535230000001093428053048417187_">
	<g class="st7">
		
			<linearGradient id="SVGID_00000174573370896561647710000000943611556354500780_" gradientUnits="userSpaceOnUse" x1="266.7919" y1="17.0822" x2="41.8756" y2="17.0822" gradientTransform="matrix(1 0 0 -1 0 31.89)">
			<stop  offset="0.24" style="stop-color:#FFFBD4"/>
			<stop  offset="0.2798" style="stop-color:#FBEBC1"/>
			<stop  offset="0.3495" style="stop-color:#F4D5A5"/>
			<stop  offset="0.4251" style="stop-color:#EFC490"/>
			<stop  offset="0.5087" style="stop-color:#ECB781"/>
			<stop  offset="0.6063" style="stop-color:#EAB078"/>
			<stop  offset="0.7514" style="stop-color:#E9AE75"/>
		</linearGradient>
		
			<rect x="106.9" y="1.4" style="fill:url(#SVGID_00000174573370896561647710000000943611556354500780_);" width="127.1" height="26.7"/>
	</g>
</mask>
<g class="st9">
	<path class="st10" d="M109.9,8.7H121v2.9h-7v2.1h6.5v2.7h-6.5v2.6h7.2v3h-11.3V8.7z"/>
	<path class="st10" d="M123.7,17.7l3.9-0.2c0.1,0.6,0.3,1.1,0.5,1.5c0.4,0.5,1,0.8,1.8,0.8c0.6,0,1-0.1,1.4-0.4
		c0.3-0.3,0.5-0.6,0.5-1c0-0.3-0.2-0.7-0.5-0.9c-0.3-0.3-1-0.5-2.1-0.8c-1.8-0.4-3.1-1-3.9-1.6c-0.8-0.7-1.2-1.5-1.2-2.6
		c0-0.7,0.2-1.3,0.6-2c0.4-0.6,1-1.1,1.8-1.4c0.8-0.4,1.9-0.5,3.3-0.5c1.7,0,3,0.3,3.9,1c0.9,0.6,1.4,1.7,1.6,3l-3.9,0.2
		c-0.1-0.6-0.3-1-0.7-1.3c-0.3-0.3-0.8-0.4-1.4-0.4c-0.5,0-0.8,0.1-1.1,0.3c-0.2,0.2-0.4,0.5-0.4,0.7c0,0.2,0.1,0.4,0.3,0.6
		c0.2,0.2,0.7,0.3,1.4,0.5c1.8,0.4,3.1,0.8,3.9,1.2c0.8,0.4,1.4,0.9,1.7,1.5c0.4,0.6,0.5,1.3,0.5,2c0,0.9-0.2,1.7-0.7,2.4
		c-0.5,0.7-1.1,1.3-2,1.7c-0.9,0.4-1.9,0.6-3.2,0.6c-2.3,0-3.9-0.4-4.7-1.3C124.3,20.2,123.8,19.1,123.7,17.7z"/>
	<path class="st10" d="M145.6,17.3v-2.8h6.4v5.7c-1.2,0.8-2.3,1.4-3.3,1.7c-0.9,0.3-2.1,0.5-3.4,0.5c-1.6,0-2.9-0.3-3.9-0.8
		c-1-0.5-1.8-1.4-2.3-2.4c-0.6-1.1-0.8-2.3-0.8-3.7c0-1.5,0.3-2.7,0.9-3.8c0.6-1.1,1.5-1.9,2.7-2.5c0.9-0.4,2.1-0.7,3.7-0.7
		c1.5,0,2.6,0.1,3.3,0.4c0.7,0.3,1.3,0.7,1.8,1.3c0.5,0.6,0.9,1.3,1.1,2.1l-4,0.7c-0.2-0.5-0.4-0.9-0.8-1.2
		c-0.4-0.3-0.9-0.4-1.5-0.4c-0.9,0-1.6,0.3-2.2,0.9c-0.5,0.6-0.8,1.6-0.8,3c0,1.5,0.3,2.5,0.8,3.1c0.5,0.6,1.3,0.9,2.3,0.9
		c0.5,0,0.9-0.1,1.3-0.2c0.4-0.1,0.9-0.4,1.4-0.7v-1.3H145.6z"/>
	<path class="st10" d="M161.2,16.3l-1.8,0.6v4.5c0,0.9-0.2,1.6-0.6,1.9c-0.1,0-0.1,0.1-0.2,0.1c-0.5,0.3-1.5,0.4-2.9,0.4
		c-0.1-0.6-0.3-1.3-0.6-2.1c0.5,0,1.1,0,1.8,0c0.2-0.1,0.3-0.2,0.3-0.3v-3.8c-1.1,0.3-1.8,0.5-2.1,0.6l-0.6-2.3
		c0.4-0.1,1.3-0.3,2.6-0.6v-3.5h-2.4V9.7h2.4V6.3h2.2v3.4h1.9v2.1h-1.9v2.9l1.6-0.4L161.2,16.3z M169.7,14.2l1.5,0.6
		c-0.6,2.2-1.7,4-3.1,5.4c1.3,0.7,2.7,1.3,4.4,1.6c-0.5,0.5-1,1.2-1.5,2c-1.8-0.4-3.4-1.1-4.7-2.1c-1.4,0.9-3.1,1.6-5,2.1
		c-0.3-0.8-0.7-1.5-1.1-2.1c1.7-0.3,3.1-0.9,4.4-1.6c-0.9-0.9-1.6-2-2.3-3.4l1.6-0.5h-2.1v-2h0.4c-0.2-0.4-0.7-0.9-1.2-1.4
		c-0.1-0.1-0.2-0.1-0.2-0.2c1.3-0.7,2-1.9,2.1-3.3c0-0.1,0-0.3,0-0.4V7h6.7V11c0.1,0.3,0.2,0.5,0.3,0.5h0.5c0.1,0,0.2-0.1,0.3-0.4
		c0-0.3,0.1-0.7,0.1-1.5c0.5,0.4,1.1,0.6,1.8,0.8c-0.1,1.4-0.4,2.3-0.8,2.6c-0.3,0.2-0.6,0.3-1.1,0.3h-1.2c-0.9,0-1.5-0.2-1.7-0.7
		c-0.2-0.4-0.3-0.9-0.3-1.6V9h-2.4c0,2.4-0.9,4.1-2.7,5.2h7.1L169.7,14.2z M168.2,16.2h-3.9c0.5,1,1.2,1.9,2,2.6
		C167.1,18.1,167.7,17.3,168.2,16.2z"/>
	<path class="st10" d="M189.6,20.6h-3.2c2.1,0.7,3.8,1.5,5.4,2.2l-2.6,1c-1.2-0.7-2.8-1.4-4.9-2.2l1.7-1h-5.5l1.7,0.8
		c-1.4,0.9-3.4,1.8-5.8,2.4c0,0-0.1,0-0.1,0c-0.6-0.7-1.2-1.2-1.6-1.6c2.1-0.4,3.8-0.9,5.2-1.6H177V13h3.9c-0.2-0.4-0.4-0.7-0.8-1.2
		c-2.3,0.6-4,1.1-5.1,1.4l-0.6-1.8c1.2-0.2,3.1-0.6,5.7-1.2l0.2,1.5c1.9-0.3,3.2-0.9,3.8-1.7c0.2-0.3,0.3-0.6,0.4-0.9h-1.4
		c-0.5,0.6-1,1.1-1.5,1.5c-0.4-0.4-1-0.8-1.7-1c1.2-0.9,2.1-1.9,2.7-3.3l2,0.3c-0.2,0.3-0.3,0.6-0.5,0.9h5.5l0.3-0.1l1.5,0.4
		c-0.6,1.2-1.2,2.1-1.8,2.8l-1.7-0.5c0.3-0.4,0.5-0.7,0.7-1h-2.1c0.3,0.8,0.9,1.5,1.9,1.9c0.8,0.4,1.9,0.6,3.4,0.8
		c-0.4,0.4-0.8,1-1.1,1.7c0,0,0,0.1,0,0.1c-0.5-0.1-1-0.2-1.2-0.2V20.6z M180.1,7.5v1.7h-5V7.5H180.1z M179.2,14.3v0.8h8.1v-0.8
		H179.2z M179.2,16.4v0.8h8.1v-0.8H179.2z M179.2,18.5v0.8h8.1v-0.8H179.2z M182.3,13h6.3c-1.3-0.5-2.3-1.2-2.9-2
		C185,11.9,183.9,12.5,182.3,13z"/>
	<path class="st10" d="M211.4,18v1.8h-4.2v1.8c0,0.8-0.2,1.4-0.6,1.7c-0.1,0.1-0.2,0.1-0.4,0.2c-0.5,0.2-1.6,0.3-3.2,0.3
		c-0.1-0.5-0.3-1.2-0.6-1.9c0.6,0,1.4,0,2.3,0c0.3-0.1,0.4-0.2,0.4-0.3v-1.7h-5.3c0.9,0.7,1.6,1.3,2,1.7l-1.7,1.4
		c-0.5-0.7-1.4-1.5-2.6-2.3c-0.1,0-0.2-0.1-0.2-0.1l0.8-0.7h-3.8V18h10.7v-0.7c-4,0.1-7.3,0.1-9.9,0.1l-0.1-1.6c0,0,2.2,0,6.6,0
		v-0.7h-5.4V9.8h5.4V9.1h-6.9V7.5h6.9V6.3h2.2v1.2h6.9v1.7h-6.9v0.7h5.7v5.4h-1.3c1,0.5,1.8,1,2.4,1.5l-1.4,1.2
		c-0.4-0.3-0.6-0.5-0.8-0.6l-1.4,0V18H211.4z M198.4,11.2v0.7h3.3v-0.7H198.4z M198.4,13.9h3.3v-0.7h-3.3V13.9z M207.4,11.2h-3.5
		v0.7h3.5V11.2z M203.9,13.9h3.5v-0.7h-3.5V13.9z M203.9,15.2v0.7l2.4,0l-0.8-0.3l0.4-0.3H203.9z"/>
	<path class="st10" d="M231.2,21v2h-14.3v0.8h-2.2V6.9h15.9v2h-13.8V21H231.2z M218.1,20.1v-5h5.2v5H218.1z M219.9,16.5v2h1.4v-2
		H219.9z M227.3,9.7v4.5H220V9.7H227.3z M225.1,12.8v-1.5h-3.1v1.5H225.1z M229.4,15v5h-5.3v-5H229.4z M227.4,18.6v-2h-1.5v2H227.4z
		"/>
</g>
</svg>
